<?xml version="1.0" encoding="UTF-8" standalone="no"?>
<!DOCTYPE svg PUBLIC "-//W3C//DTD SVG 1.1//EN" "http://www.w3.org/Graphics/SVG/1.1/DTD/svg11.dtd">
<svg width="100%" height="100%" viewBox="0 0 29 42" version="1.1" xmlns="http://www.w3.org/2000/svg" xmlns:xlink="http://www.w3.org/1999/xlink" xml:space="preserve" xmlns:serif="http://www.serif.com/" style="fill-rule:evenodd;clip-rule:evenodd;stroke-linejoin:round;stroke-miterlimit:2;">
    <g transform="matrix(1,0,0,1,-0.544661,-0.30451)">
        <g transform="matrix(0.188291,0,0,0.188291,-19.0934,-53.4918)">
            <g transform="matrix(1,0,0,1,-79.1891,-15.1005)">
                <path d="M212.821,432.844L211.866,432.713C196.504,419.259 186.797,399.503 186.797,377.498C186.797,337 219.677,304.12 260.175,304.12C265.311,304.12 270.323,304.649 275.162,305.655C275.026,305.616 274.89,305.577 274.753,305.539C308.359,312.245 333.715,341.934 333.715,377.498C333.715,399.287 324.198,418.87 309.098,432.314C308.953,432.922 308.492,433.559 307.68,434.225L318.913,484.548C318.913,490.093 314.412,494.594 308.868,494.594L308.862,494.594L308.857,494.594L308.789,494.593L308.738,494.593L308.734,494.593C305.594,494.555 303.27,493.053 301.859,490.74L301.884,490.752C300.832,489.032 300.286,486.862 300.286,484.511C300.286,482.654 300.153,481.552 300.207,479.459L300.206,476.181C300.157,473.62 298.57,471.433 296.332,470.505L296.339,470.517C295.593,470.204 294.775,470.03 293.916,470.029C290.502,470.034 287.783,471.444 287.718,474.845L287.659,476.181L287.659,509.805C286.573,514.179 281.762,517.32 277.054,517.32L277.027,517.32L277.011,517.32C273.556,517.32 270.505,515.576 268.695,512.921L268.781,512.971C267.663,511.352 267.009,509.389 267.009,507.275L267.009,485.452C267.007,483.68 267.009,483.103 267.009,482.018C267.009,479.209 265.66,477.116 263.302,476.426L263.31,476.446C262.754,476.275 262.139,476.184 261.473,476.181C258.168,476.193 255.463,478.766 255.238,482.018L255.223,482.018L255.228,482.21C255.225,482.291 255.223,482.373 255.223,482.455C255.223,482.641 255.231,482.825 255.247,483.008L255.448,506.467C255.461,506.676 255.468,506.887 255.468,507.1C255.468,507.145 255.467,507.191 255.467,507.236L255.468,507.275L255.466,507.274C255.373,512.738 250.908,517.145 245.422,517.145L245.384,517.145L245.346,517.145C241.891,517.145 238.841,515.401 237.031,512.746L237.171,512.828C236.04,511.203 235.377,509.228 235.377,507.1C235.377,506.821 235.388,506.545 235.41,506.272L236.013,476.261C236.027,476.09 236.034,475.918 236.034,475.744C236.034,473.099 234.394,470.834 232.075,469.912L232.099,469.958C231.365,469.649 230.559,469.476 229.714,469.47C226.273,469.495 223.486,472.296 223.486,475.744L223.486,484.548C223.486,490.093 218.985,494.594 213.441,494.594L213.386,494.594L213.332,494.594C209.877,494.594 206.826,492.849 205.016,490.195C205.08,490.233 205.145,490.27 205.211,490.307C204.067,488.676 203.395,486.69 203.395,484.548L212.821,432.844ZM236.034,475.744L236.013,476.261C235.75,479.482 236.034,475.744 236.034,475.744Z" style="fill:rgb(136,119,190);"/>
                <path d="M261.179,300.814L262.18,300.834L263.178,300.866L264.173,300.911L265.165,300.968L266.153,301.038L267.138,301.121L268.12,301.216L269.098,301.323L270.072,301.442L271.042,301.574L272.009,301.718L272.972,301.873L273.931,302.041L274.885,302.221L274.965,302.237L275.419,302.294L276.223,302.459L277.042,302.637L277.857,302.823L278.669,303.018L279.478,303.221L280.284,303.433L281.085,303.653L281.884,303.882L282.679,304.12L283.47,304.365L284.257,304.619L285.041,304.881L285.821,305.152L286.597,305.43L287.369,305.717L288.138,306.011L288.902,306.314L289.662,306.624L290.419,306.942L291.171,307.269L291.918,307.602L292.662,307.944L293.401,308.293L294.136,308.65L294.867,309.015L295.593,309.387L296.315,309.766L297.032,310.153L297.744,310.547L298.452,310.949L299.155,311.358L299.854,311.774L300.547,312.197L301.236,312.627L301.919,313.064L302.598,313.508L303.272,313.96L303.941,314.418L304.604,314.883L305.263,315.354L305.916,315.833L306.564,316.318L307.207,316.81L307.844,317.308L308.476,317.813L309.102,318.325L309.723,318.843L310.338,319.367L310.948,319.897L311.552,320.434L312.151,320.977L312.743,321.527L313.33,322.082L313.911,322.644L314.486,323.211L315.055,323.785L315.618,324.364L316.175,324.949L316.725,325.54L317.27,326.137L317.808,326.74L318.34,327.348L318.866,327.962L319.386,328.582L319.899,329.207L320.405,329.837L320.905,330.473L321.398,331.115L321.885,331.761L322.365,332.413L322.839,333.071L323.305,333.733L323.765,334.4L324.218,335.073L324.664,335.751L325.103,336.433L325.535,337.121L325.96,337.813L326.377,338.51L326.788,339.212L327.191,339.919L327.587,340.63L327.976,341.346L328.357,342.067L328.731,342.792L329.097,343.521L329.456,344.255L329.807,344.993L330.151,345.736L330.487,346.483L330.815,347.234L331.135,347.989L331.447,348.748L331.752,349.512L332.048,350.279L332.337,351.05L332.617,351.826L332.889,352.605L333.153,353.387L333.409,354.174L333.657,354.964L333.896,355.758L334.127,356.556L334.35,357.357L334.564,358.161L334.769,358.969L334.966,359.78L335.154,360.595L335.334,361.413L335.505,362.234L335.667,363.058L335.82,363.885L335.964,364.716L336.1,365.549L336.226,366.385L336.343,367.224L336.452,368.066L336.551,368.911L336.641,369.758L336.721,370.609L336.793,371.461L336.855,372.317L336.907,373.174L336.95,374.034L336.984,374.897L337.008,375.762L337.022,376.629L337.027,377.5L337.02,378.563L336.998,379.625L336.962,380.683L336.912,381.738L336.847,382.788L336.769,383.836L336.676,384.879L336.569,385.918L336.449,386.954L336.315,387.985L336.167,389.012L336.005,390.034L335.831,391.052L335.642,392.066L335.441,393.075L335.226,394.079L334.999,395.078L334.758,396.072L334.505,397.062L334.238,398.046L333.959,399.024L333.668,399.998L333.364,400.966L333.047,401.928L332.718,402.885L332.377,403.836L332.024,404.781L331.659,405.721L331.282,406.654L330.893,407.581L330.492,408.502L330.079,409.417L329.656,410.325L329.22,411.226L328.773,412.122L328.315,413.01L327.846,413.891L327.366,414.766L326.875,415.634L326.373,416.495L325.86,417.348L325.336,418.194L324.802,419.033L324.257,419.865L323.702,420.689L323.137,421.505L322.561,422.313L321.975,423.114L321.379,423.907L320.773,424.692L320.158,425.469L319.532,426.237L318.897,426.997L318.253,427.749L317.598,428.493L316.935,429.228L316.262,429.954L315.58,430.671L314.889,431.38L314.189,432.08L313.48,432.771L312.762,433.452L312.035,434.125L311.894,434.251L311.769,434.493L311.623,434.743L311.468,434.982L311.306,435.212L311.297,435.224L322.146,483.827L322.207,484.206L322.225,484.59L322.221,484.891L322.208,485.233L322.186,485.572L322.156,485.91L322.118,486.245L322.071,486.578L322.017,486.909L321.954,487.237L321.883,487.562L321.804,487.884L321.718,488.203L321.624,488.519L321.522,488.831L321.413,489.141L321.297,489.446L321.173,489.748L321.043,490.046L320.905,490.34L320.761,490.631L320.61,490.917L320.452,491.199L320.288,491.476L320.118,491.749L319.941,492.018L319.758,492.282L319.569,492.541L319.373,492.796L319.172,493.045L318.966,493.29L318.753,493.529L318.535,493.763L318.312,493.992L318.083,494.216L317.848,494.434L317.609,494.646L317.364,494.853L317.115,495.054L316.86,495.249L316.601,495.439L316.337,495.622L316.069,495.798L315.795,495.969L315.518,496.133L315.236,496.291L314.95,496.442L314.66,496.586L314.365,496.724L314.067,496.854L313.765,496.978L313.46,497.094L313.151,497.203L312.838,497.305L312.522,497.399L312.203,497.485L311.881,497.564L311.556,497.635L311.228,497.697L310.897,497.752L310.564,497.799L310.229,497.837L309.892,497.867L309.552,497.889L309.211,497.902L308.875,497.906L308.862,497.906L308.858,497.906L308.766,497.905L308.695,497.905L308.657,497.904L308.304,497.895L307.917,497.873L307.534,497.839L307.154,497.794L306.778,497.738L306.407,497.67L306.04,497.591L305.677,497.5L305.32,497.398L304.968,497.285L304.621,497.161L304.28,497.026L303.946,496.881L303.618,496.725L303.296,496.558L302.982,496.382L302.674,496.197L302.375,496.001L302.082,495.797L301.798,495.584L301.522,495.363L301.253,495.133L300.993,494.896L300.742,494.652L300.498,494.4L300.263,494.141L300.037,493.876L299.819,493.605L299.609,493.328L299.408,493.046L299.216,492.758L299.056,492.504L298.908,492.224L298.799,492.037L298.558,491.583L298.335,491.119L298.129,490.647L297.941,490.168L297.771,489.681L297.617,489.187L297.481,488.687L297.361,488.181L297.257,487.67L297.17,487.154L297.099,486.633L297.044,486.108L297.005,485.579L296.981,485.047L296.974,484.549L296.968,483.899L296.955,483.328L296.916,482.181L296.897,481.57L296.884,480.906L296.883,480.178L296.895,479.432L296.894,476.244L296.889,476.13L296.881,476.017L296.868,475.907L296.852,475.798L296.831,475.691L296.807,475.585L296.779,475.481L296.748,475.379L296.712,475.278L296.674,475.179L296.631,475.081L296.586,474.985L296.536,474.891L296.484,474.799L296.428,474.708L296.369,474.62L296.307,474.534L296.242,474.45L296.173,474.368L296.102,474.289L296.028,474.212L295.952,474.138L295.873,474.067L295.791,473.999L295.708,473.933L295.621,473.871L295.533,473.812L295.443,473.756L295.351,473.703L295.257,473.653L295.178,473.616L295.129,473.601L294.922,473.519L294.786,473.474L294.648,473.435L294.507,473.402L294.363,473.376L294.195,473.355L294.141,473.35L294.066,473.345L293.989,473.342L293.917,473.341L293.69,473.345L293.467,473.354L293.252,473.369L293.047,473.389L292.852,473.414L292.666,473.444L292.492,473.479L292.329,473.517L292.178,473.558L292.038,473.602L291.911,473.648L291.797,473.694L291.695,473.742L291.605,473.789L291.526,473.835L291.459,473.879L291.401,473.922L291.353,473.962L291.312,474L291.278,474.036L291.248,474.072L291.207,474.128L291.196,474.145L291.184,474.165L291.173,474.187L291.161,474.209L291.15,474.234L291.138,474.261L291.127,474.29L291.116,474.321L291.105,474.356L291.094,474.393L291.084,474.434L291.074,474.479L291.064,474.527L291.056,474.58L291.048,474.637L291.041,474.698L291.037,474.742L291.026,474.991L290.971,476.254L290.971,509.805L290.944,510.23L290.862,510.647L290.797,510.894L290.713,511.181L290.622,511.465L290.524,511.746L290.419,512.022L290.307,512.295L290.189,512.564L290.065,512.829L289.934,513.09L289.797,513.348L289.655,513.601L289.507,513.849L289.353,514.094L289.195,514.335L289.031,514.571L288.862,514.803L288.689,515.03L288.511,515.254L288.328,515.473L288.141,515.688L287.949,515.898L287.754,516.105L287.555,516.306L287.351,516.504L287.144,516.697L286.934,516.886L286.719,517.071L286.501,517.251L286.28,517.426L286.056,517.598L285.829,517.765L285.598,517.927L285.364,518.086L285.128,518.239L284.889,518.389L284.647,518.534L284.402,518.674L284.155,518.81L283.905,518.941L283.653,519.068L283.399,519.19L283.142,519.308L282.883,519.421L282.622,519.529L282.358,519.633L282.093,519.731L281.826,519.825L281.557,519.915L281.286,519.999L281.013,520.078L280.739,520.152L280.463,520.221L280.186,520.285L279.907,520.344L279.627,520.398L279.345,520.446L279.062,520.489L278.779,520.527L278.493,520.559L278.207,520.585L277.92,520.605L277.632,520.62L277.343,520.629L277.061,520.632L277.034,520.632L277.002,520.632L276.584,520.626L276.159,520.606L275.738,520.572L275.32,520.526L274.905,520.467L274.495,520.395L274.088,520.311L273.686,520.215L273.289,520.106L272.897,519.986L272.51,519.854L272.128,519.711L271.753,519.557L271.383,519.392L271.019,519.216L270.661,519.03L270.31,518.833L269.966,518.627L269.629,518.41L269.298,518.184L268.976,517.948L268.66,517.703L268.352,517.449L268.052,517.187L267.761,516.915L267.477,516.635L267.202,516.347L266.935,516.05L266.677,515.746L266.428,515.434L266.189,515.114L265.987,514.827L265.719,514.373L265.68,514.274L265.527,514.024L265.285,513.595L265.059,513.156L264.849,512.707L264.655,512.249L264.478,511.783L264.318,511.309L264.175,510.827L264.05,510.337L263.943,509.841L263.855,509.338L263.786,508.83L263.736,508.316L263.706,507.797L263.697,507.306L263.697,482.043L263.694,481.857L263.687,481.703L263.675,481.556L263.66,481.416L263.641,481.282L263.618,481.156L263.593,481.036L263.564,480.923L263.533,480.817L263.5,480.718L263.465,480.625L263.429,480.538L263.391,480.457L263.352,480.382L263.313,480.312L263.272,480.248L263.231,480.188L263.189,480.132L263.146,480.08L263.102,480.032L263.057,479.986L263.011,479.943L262.963,479.902L262.912,479.864L262.859,479.826L262.803,479.791L262.744,479.756L262.68,479.723L262.611,479.692L262.537,479.661L262.518,479.654L262.403,479.631L262.253,479.588L262.161,479.566L262.062,479.546L261.956,479.529L261.843,479.514L261.722,479.503L261.594,479.496L261.484,479.494L261.337,479.498L261.193,479.509L261.051,479.527L260.913,479.551L260.777,479.581L260.643,479.618L260.513,479.661L260.385,479.709L260.259,479.764L260.137,479.824L260.017,479.89L259.9,479.961L259.787,480.038L259.678,480.119L259.572,480.206L259.47,480.298L259.373,480.394L259.28,480.494L259.191,480.598L259.108,480.707L259.03,480.819L258.956,480.934L258.889,481.053L258.827,481.174L258.77,481.299L258.719,481.426L258.674,481.556L258.636,481.689L258.603,481.824L258.577,481.962L258.556,482.103L258.539,482.293L258.536,482.45L258.539,482.588L258.558,482.885L258.759,506.376L258.774,506.679L258.78,507.085L258.779,507.207L258.779,507.194L258.77,507.379L258.777,507.373L258.768,507.669L258.749,508.006L258.723,508.341L258.688,508.673L258.645,509.004L258.593,509.332L258.534,509.657L258.467,509.98L258.393,510.3L258.311,510.617L258.221,510.931L258.124,511.242L258.019,511.549L257.907,511.853L257.789,512.154L257.663,512.45L257.53,512.744L257.391,513.033L257.245,513.318L257.092,513.599L256.933,513.876L256.768,514.149L256.597,514.417L256.419,514.681L256.235,514.94L256.046,515.195L255.85,515.445L255.649,515.69L255.443,515.93L255.23,516.165L255.013,516.395L254.79,516.62L254.561,516.839L254.328,517.053L254.089,517.262L253.846,517.464L253.598,517.662L253.344,517.853L253.087,518.039L252.824,518.218L252.557,518.392L252.286,518.559L252.01,518.72L251.731,518.875L251.447,519.023L251.159,519.164L250.867,519.299L250.571,519.427L250.272,519.548L249.969,519.662L249.662,519.769L249.353,519.868L249.04,519.96L248.724,520.045L248.405,520.122L248.083,520.192L247.758,520.253L247.431,520.307L247.101,520.352L246.77,520.39L246.435,520.419L246.099,520.441L245.762,520.453L245.433,520.457L245.384,520.457L245.33,520.457L244.919,520.451L244.495,520.431L244.073,520.398L243.655,520.351L243.241,520.292L242.83,520.22L242.424,520.136L242.022,520.04L241.625,519.932L241.232,519.811L240.845,519.68L240.464,519.537L240.088,519.382L239.718,519.217L239.354,519.041L238.997,518.855L238.646,518.659L238.301,518.452L237.964,518.235L237.634,518.009L237.311,517.773L236.995,517.529L236.688,517.275L236.388,517.012L236.096,516.74L235.812,516.46L235.537,516.172L235.27,515.876L235.013,515.571L234.764,515.259L234.524,514.939L234.322,514.653L234.054,514.198L233.958,513.953L233.918,513.888L233.673,513.457L233.445,513.016L233.232,512.565L233.035,512.105L232.856,511.636L232.694,511.159L232.549,510.674L232.423,510.182L232.314,509.682L232.225,509.177L232.155,508.665L232.105,508.148L232.074,507.626L232.064,507.115L232.067,506.824L232.076,506.549L232.09,506.275L232.101,506.12L232.661,478.209L232.607,477.91L232.593,477.405L232.598,477.317L232.621,476.973L232.72,475.653L232.719,475.625L232.712,475.509L232.701,475.394L232.686,475.281L232.666,475.171L232.643,475.061L232.615,474.954L232.584,474.848L232.549,474.744L232.51,474.641L232.467,474.541L232.421,474.442L232.371,474.345L232.317,474.25L232.26,474.156L232.199,474.065L232.136,473.977L232.069,473.89L231.998,473.806L231.925,473.725L231.849,473.646L231.77,473.571L231.689,473.498L231.604,473.428L231.518,473.361L231.429,473.298L231.337,473.238L231.244,473.181L231.149,473.128L231.115,473.11L230.889,473.041L230.684,472.961L230.551,472.916L230.415,472.877L230.276,472.845L230.135,472.819L229.99,472.8L229.843,472.788L229.695,472.783L229.66,472.784L229.584,472.787L229.509,472.793L229.454,472.798L229.287,472.82L229.143,472.847L229.002,472.88L228.864,472.921L228.728,472.967L228.596,473.02L228.466,473.08L228.34,473.145L228.217,473.217L228.098,473.294L227.982,473.377L227.87,473.466L227.763,473.559L227.66,473.658L227.562,473.762L227.469,473.87L227.381,473.982L227.299,474.098L227.222,474.218L227.152,474.342L227.087,474.469L227.029,474.598L226.976,474.731L226.931,474.867L226.891,475.006L226.859,475.147L226.833,475.291L226.812,475.46L226.807,475.514L226.802,475.59L226.799,475.666L226.798,475.765L226.798,484.569L226.794,484.891L226.781,485.233L226.759,485.572L226.729,485.91L226.691,486.245L226.644,486.578L226.59,486.909L226.527,487.237L226.456,487.562L226.377,487.884L226.291,488.203L226.197,488.519L226.095,488.831L225.986,489.141L225.87,489.446L225.746,489.748L225.616,490.046L225.478,490.34L225.334,490.631L225.183,490.917L225.025,491.199L224.861,491.476L224.691,491.749L224.514,492.018L224.331,492.282L224.142,492.541L223.946,492.796L223.745,493.045L223.539,493.29L223.326,493.529L223.108,493.763L222.885,493.992L222.656,494.216L222.421,494.434L222.182,494.646L221.937,494.853L221.688,495.054L221.433,495.249L221.174,495.439L220.91,495.622L220.642,495.798L220.368,495.969L220.091,496.133L219.809,496.291L219.523,496.442L219.233,496.586L218.938,496.724L218.64,496.854L218.338,496.978L218.033,497.094L217.724,497.203L217.411,497.305L217.095,497.399L216.776,497.485L216.454,497.564L216.129,497.635L215.801,497.697L215.47,497.752L215.137,497.799L214.802,497.837L214.465,497.867L214.125,497.889L213.784,497.902L213.451,497.906L213.386,497.906L213.316,497.906L212.904,497.9L212.48,497.879L212.059,497.846L211.641,497.8L211.226,497.741L210.815,497.669L210.409,497.585L210.007,497.489L209.61,497.38L209.218,497.26L208.831,497.128L208.449,496.985L208.073,496.831L207.703,496.666L207.339,496.49L206.982,496.304L206.631,496.107L206.287,495.901L205.949,495.684L205.619,495.458L205.296,495.222L204.981,494.977L204.673,494.723L204.373,494.46L204.081,494.189L203.798,493.909L203.522,493.621L203.256,493.324L202.998,493.02L202.749,492.708L202.509,492.388L202.308,492.101L202.04,491.648L201.874,491.227L201.711,490.941L201.48,490.498L201.264,490.045L201.066,489.583L200.884,489.112L200.72,488.632L200.574,488.144L200.445,487.649L200.336,487.147L200.246,486.638L200.175,486.123L200.124,485.603L200.093,485.078L200.084,484.613L200.094,484.282L200.137,483.954L209.116,434.7L208.936,434.541L208.197,433.867L207.466,433.185L206.745,432.493L206.032,431.791L205.329,431.081L204.635,430.361L203.95,429.633L203.275,428.895L202.609,428.149L201.953,427.394L201.307,426.631L200.67,425.859L200.043,425.079L199.426,424.29L198.82,423.493L198.223,422.688L197.637,421.875L197.062,421.054L196.496,420.226L195.942,419.389L195.398,418.545L194.864,417.693L194.342,416.834L193.831,415.968L193.33,415.094L192.841,414.214L192.363,413.326L191.897,412.431L191.442,411.529L190.998,410.621L190.566,409.706L190.146,408.784L189.738,407.856L189.341,406.921L188.957,405.981L188.585,405.034L188.225,404.081L187.878,403.122L187.543,402.157L187.22,401.186L186.91,400.21L186.613,399.228L186.328,398.24L186.057,397.248L185.799,396.249L185.553,395.246L185.321,394.238L185.102,393.225L184.897,392.206L184.705,391.183L184.527,390.156L184.362,389.124L184.212,388.087L184.075,387.046L183.952,386.001L183.843,384.951L183.749,383.898L183.669,382.841L183.603,381.779L183.551,380.714L183.515,379.646L183.492,378.574L183.485,377.499L183.491,376.509L183.51,375.522L183.541,374.538L183.585,373.557L183.641,372.579L183.709,371.604L183.789,370.633L183.881,369.665L183.985,368.701L184.101,367.74L184.229,366.783L184.369,365.829L184.521,364.879L184.684,363.933L184.858,362.991L185.044,362.053L185.242,361.119L185.45,360.19L185.67,359.264L185.901,358.343L186.144,357.426L186.397,356.514L186.661,355.606L186.936,354.703L187.222,353.805L187.518,352.912L187.825,352.023L188.143,351.14L188.471,350.261L188.809,349.388L189.158,348.52L189.517,347.657L189.886,346.799L190.266,345.947L190.655,345.1L191.054,344.259L191.463,343.424L191.882,342.594L192.311,341.77L192.749,340.952L193.197,340.14L193.654,339.334L194.12,338.534L194.596,337.741L195.082,336.953L195.576,336.172L196.079,335.397L196.592,334.629L197.113,333.868L197.644,333.113L198.183,332.364L198.731,331.623L199.287,330.888L199.852,330.16L200.426,329.439L201.008,328.726L201.598,328.019L202.196,327.32L202.803,326.628L203.418,325.943L204.041,325.266L204.672,324.597L205.311,323.935L205.957,323.28L206.612,322.634L207.274,321.995L207.943,321.364L208.62,320.741L209.305,320.126L209.997,319.519L210.696,318.921L211.403,318.331L212.117,317.749L212.837,317.175L213.565,316.61L214.3,316.054L215.041,315.506L215.79,314.967L216.545,314.436L217.306,313.915L218.074,313.402L218.849,312.899L219.63,312.405L220.418,311.919L221.211,311.443L222.011,310.977L222.817,310.52L223.629,310.072L224.447,309.634L225.271,309.205L226.101,308.786L226.936,308.377L227.777,307.978L228.624,307.589L229.476,307.209L230.334,306.84L231.197,306.481L232.065,306.132L232.938,305.794L233.817,305.466L234.7,305.148L235.589,304.841L236.482,304.545L237.381,304.259L238.284,303.984L239.191,303.72L240.103,303.467L241.02,303.224L241.941,302.993L242.867,302.773L243.796,302.565L244.73,302.367L245.668,302.181L246.61,302.007L247.556,301.844L248.506,301.692L249.46,301.552L250.417,301.424L251.378,301.308L252.342,301.204L253.31,301.112L254.282,301.032L255.256,300.964L256.234,300.908L257.215,300.864L258.199,300.833L259.186,300.814L260.176,300.808L261.179,300.814ZM259.228,304.126L258.283,304.144L257.341,304.174L256.402,304.216L255.466,304.269L254.533,304.334L253.604,304.411L252.677,304.499L251.755,304.599L250.835,304.71L249.919,304.832L249.007,304.966L248.098,305.111L247.193,305.267L246.292,305.434L245.395,305.612L244.502,305.801L243.612,306L242.727,306.211L241.846,306.432L240.969,306.663L240.097,306.906L239.229,307.158L238.365,307.421L237.506,307.695L236.651,307.978L235.801,308.272L234.956,308.576L234.116,308.889L233.281,309.213L232.45,309.547L231.625,309.89L230.804,310.243L229.989,310.606L229.179,310.979L228.375,311.361L227.575,311.752L226.782,312.153L225.994,312.563L225.211,312.982L224.434,313.41L223.663,313.848L222.898,314.294L222.138,314.75L221.385,315.214L220.637,315.687L219.896,316.169L219.161,316.659L218.432,317.158L217.709,317.665L216.993,318.181L216.284,318.706L215.581,319.238L214.884,319.779L214.194,320.328L213.511,320.885L212.835,321.45L212.166,322.023L211.503,322.603L210.848,323.192L210.2,323.788L209.559,324.392L208.926,325.003L208.299,325.622L207.68,326.249L207.069,326.882L206.465,327.523L205.869,328.171L205.28,328.826L204.7,329.489L204.127,330.158L203.562,330.834L203.005,331.517L202.456,332.207L201.915,332.903L201.383,333.607L200.858,334.316L200.343,335.032L199.835,335.755L199.336,336.484L198.846,337.219L198.364,337.96L197.891,338.708L197.427,339.461L196.971,340.221L196.525,340.986L196.087,341.757L195.659,342.534L195.24,343.316L194.83,344.105L194.429,344.898L194.038,345.698L193.656,346.502L193.283,347.312L192.92,348.127L192.567,348.948L192.224,349.773L191.89,350.604L191.566,351.439L191.253,352.279L190.949,353.124L190.655,353.974L190.372,354.829L190.098,355.688L189.835,356.552L189.583,357.42L189.341,358.292L189.109,359.169L188.888,360.05L188.677,360.935L188.478,361.825L188.289,362.718L188.111,363.615L187.944,364.516L187.788,365.421L187.643,366.33L187.51,367.242L187.387,368.158L187.276,369.077L187.176,370L187.088,370.927L187.011,371.856L186.946,372.789L186.893,373.725L186.851,374.664L186.821,375.606L186.803,376.551L186.797,377.498L186.804,378.528L186.825,379.555L186.861,380.578L186.91,381.597L186.973,382.613L187.05,383.625L187.14,384.633L187.244,385.637L187.362,386.637L187.493,387.633L187.637,388.625L187.794,389.612L187.965,390.595L188.148,391.574L188.345,392.548L188.554,393.517L188.776,394.481L189.01,395.441L189.258,396.396L189.517,397.345L189.789,398.29L190.074,399.229L190.37,400.163L190.679,401.091L190.999,402.014L191.331,402.931L191.676,403.843L192.032,404.749L192.399,405.649L192.778,406.543L193.169,407.43L193.571,408.312L193.984,409.187L194.408,410.057L194.844,410.919L195.29,411.775L195.747,412.625L196.215,413.467L196.694,414.303L197.183,415.132L197.683,415.954L198.193,416.769L198.714,417.577L199.245,418.377L199.785,419.17L200.336,419.956L200.897,420.734L201.468,421.504L202.049,422.267L202.639,423.021L203.239,423.768L203.848,424.507L204.467,425.238L205.095,425.96L205.732,426.674L206.378,427.38L207.034,428.077L207.698,428.766L208.371,429.446L209.053,430.117L209.743,430.78L210.443,431.433L211.15,432.078L211.866,432.713L212.821,432.844L203.395,484.548L203.403,484.948L203.426,485.344L203.465,485.735L203.518,486.122L203.586,486.504L203.668,486.882L203.764,487.253L203.874,487.619L203.997,487.979L204.133,488.333L204.283,488.68L204.444,489.02L204.618,489.353L204.804,489.679L205.002,489.997L205.211,490.307L205.016,490.195L205.189,490.441L205.37,490.682L205.557,490.917L205.751,491.146L205.952,491.369L206.159,491.587L206.373,491.797L206.593,492.002L206.819,492.2L207.051,492.391L207.288,492.576L207.532,492.753L207.78,492.924L208.034,493.086L208.293,493.242L208.557,493.39L208.826,493.53L209.099,493.662L209.377,493.786L209.659,493.902L209.946,494.009L210.237,494.108L210.531,494.198L210.829,494.28L211.131,494.352L211.436,494.415L211.745,494.469L212.057,494.514L212.371,494.549L212.689,494.574L213.009,494.589L213.332,494.594L213.386,494.594L213.441,494.594L213.7,494.591L213.957,494.581L214.213,494.565L214.467,494.542L214.719,494.513L214.97,494.478L215.218,494.437L215.464,494.39L215.708,494.336L215.95,494.277L216.189,494.213L216.426,494.142L216.661,494.066L216.893,493.984L217.122,493.897L217.349,493.804L217.573,493.706L217.794,493.603L218.012,493.494L218.227,493.381L218.439,493.262L218.648,493.139L218.853,493.01L219.055,492.877L219.254,492.74L219.449,492.597L219.641,492.45L219.829,492.299L220.013,492.143L220.193,491.983L220.37,491.819L220.542,491.65L220.711,491.478L220.875,491.301L221.035,491.121L221.191,490.937L221.342,490.749L221.489,490.557L221.632,490.362L221.77,490.163L221.903,489.961L222.031,489.756L222.154,489.547L222.273,489.335L222.386,489.12L222.495,488.902L222.598,488.681L222.696,488.457L222.789,488.23L222.876,488.001L222.958,487.769L223.034,487.534L223.105,487.297L223.17,487.058L223.229,486.816L223.282,486.572L223.329,486.326L223.37,486.077L223.405,485.827L223.434,485.575L223.457,485.321L223.473,485.065L223.483,484.808L223.486,484.548L223.486,475.744L223.488,475.583L223.494,475.422L223.504,475.263L223.518,475.105L223.558,474.793L223.613,474.485L223.682,474.183L223.766,473.887L223.864,473.596L223.975,473.312L224.1,473.036L224.237,472.766L224.387,472.504L224.549,472.25L224.723,472.005L224.908,471.768L225.103,471.541L225.31,471.323L225.526,471.116L225.752,470.918L225.987,470.732L226.231,470.557L226.484,470.393L226.745,470.242L227.013,470.102L227.289,469.976L227.572,469.863L227.861,469.763L228.157,469.677L228.458,469.605L228.765,469.549L229.077,469.507L229.235,469.492L229.394,469.481L229.553,469.473L229.714,469.47L230.029,469.48L230.34,469.505L230.646,469.546L230.948,469.6L231.244,469.669L231.535,469.752L231.82,469.849L232.099,469.958L232.075,469.912L232.291,470.002L232.502,470.1L232.709,470.206L232.911,470.318L233.109,470.439L233.302,470.566L233.489,470.699L233.672,470.84L233.849,470.987L234.021,471.14L234.187,471.299L234.347,471.465L234.501,471.636L234.648,471.812L234.789,471.994L234.924,472.181L235.052,472.374L235.173,472.571L235.286,472.773L235.393,472.979L235.492,473.19L235.583,473.405L235.666,473.623L235.742,473.846L235.809,474.072L235.867,474.302L235.918,474.535L235.959,474.771L235.992,475.011L236.015,475.252L236.029,475.497L236.034,475.744L236.029,476.004L236.013,476.261L235.41,506.272L235.396,506.477L235.385,506.684L235.379,506.891L235.377,507.1L235.384,507.497L235.407,507.89L235.445,508.279L235.498,508.664L235.565,509.044L235.646,509.419L235.741,509.788L235.85,510.152L235.971,510.51L236.106,510.862L236.254,511.208L236.413,511.546L236.585,511.878L236.769,512.202L236.964,512.519L237.171,512.828L237.031,512.746L237.204,512.992L237.384,513.233L237.572,513.468L237.766,513.697L237.967,513.921L238.174,514.138L238.388,514.349L238.608,514.553L238.834,514.751L239.065,514.943L239.303,515.127L239.546,515.305L239.795,515.475L240.049,515.638L240.308,515.793L240.572,515.941L240.84,516.081L241.114,516.213L241.392,516.337L241.674,516.453L241.961,516.561L242.251,516.66L242.546,516.75L242.844,516.831L243.146,516.904L243.451,516.967L243.759,517.021L244.071,517.065L244.386,517.1L244.703,517.125L245.024,517.14L245.346,517.145L245.384,517.145L245.422,517.145L245.679,517.142L245.933,517.132L246.187,517.117L246.438,517.094L246.688,517.066L246.935,517.032L247.181,516.991L247.425,516.945L247.667,516.893L247.906,516.835L248.143,516.772L248.378,516.703L248.611,516.628L248.841,516.548L249.068,516.462L249.293,516.371L249.515,516.275L249.734,516.174L249.95,516.068L250.164,515.956L250.374,515.84L250.581,515.719L250.785,515.593L250.986,515.463L251.184,515.328L251.378,515.188L251.568,515.044L251.755,514.895L251.939,514.742L252.118,514.585L252.294,514.424L252.466,514.259L252.634,514.089L252.798,513.916L252.958,513.739L253.114,513.558L253.265,513.374L253.413,513.186L253.555,512.994L253.694,512.799L253.827,512.6L253.956,512.398L254.081,512.193L254.2,511.985L254.315,511.774L254.425,511.559L254.529,511.342L254.629,511.122L254.723,510.899L254.812,510.673L254.896,510.445L254.975,510.214L255.048,509.981L255.115,509.745L255.177,509.508L255.233,509.267L255.283,509.025L255.327,508.781L255.366,508.534L255.398,508.286L255.425,508.036L255.445,507.784L255.459,507.53L255.466,507.274L255.468,507.275L255.467,507.236L255.468,507.1L255.463,506.782L255.448,506.467L255.247,483.008L255.229,482.733L255.223,482.455L255.228,482.21L255.223,482.018L255.238,482.018L255.266,481.715L255.309,481.416L255.365,481.123L255.435,480.834L255.518,480.55L255.614,480.272L255.722,480.001L255.842,479.735L255.975,479.477L256.118,479.225L256.273,478.981L256.438,478.745L256.614,478.517L256.8,478.297L256.996,478.086L257.201,477.884L257.415,477.692L257.637,477.51L257.868,477.337L258.107,477.176L258.354,477.025L258.608,476.885L258.869,476.757L259.136,476.641L259.41,476.537L259.69,476.445L259.975,476.367L260.265,476.302L260.561,476.25L260.861,476.213L261.165,476.19L261.473,476.181L261.72,476.186L261.963,476.199L262.2,476.221L262.433,476.25L262.66,476.288L262.882,476.333L263.099,476.385L263.31,476.446L263.302,476.426L263.52,476.495L263.733,476.571L263.939,476.656L264.139,476.749L264.332,476.849L264.52,476.957L264.701,477.073L264.876,477.196L265.045,477.326L265.207,477.463L265.362,477.607L265.511,477.758L265.653,477.915L265.789,478.079L265.918,478.25L266.04,478.427L266.155,478.61L266.263,478.8L266.364,478.995L266.458,479.196L266.544,479.403L266.624,479.615L266.696,479.833L266.761,480.056L266.819,480.284L266.869,480.518L266.911,480.756L266.946,480.999L266.973,481.247L266.993,481.5L267.005,481.756L267.009,482.018L267.009,507.275L267.016,507.669L267.039,508.06L267.076,508.447L267.128,508.829L267.195,509.206L267.275,509.579L267.368,509.946L267.476,510.308L267.596,510.664L267.729,511.014L267.875,511.358L268.032,511.695L268.202,512.025L268.384,512.348L268.577,512.663L268.781,512.971L268.695,512.921L268.869,513.167L269.049,513.408L269.236,513.643L269.431,513.872L269.631,514.095L269.839,514.313L270.052,514.524L270.272,514.728L270.498,514.926L270.73,515.118L270.968,515.302L271.211,515.479L271.459,515.65L271.713,515.813L271.972,515.968L272.236,516.116L272.505,516.256L272.778,516.388L273.056,516.512L273.339,516.628L273.625,516.736L273.916,516.834L274.21,516.925L274.509,517.006L274.81,517.078L275.116,517.142L275.424,517.195L275.736,517.24L276.051,517.275L276.368,517.3L276.688,517.315L277.011,517.32L277.027,517.32L277.054,517.32L277.275,517.318L277.496,517.311L277.716,517.3L277.937,517.284L278.158,517.263L278.378,517.239L278.598,517.21L278.817,517.177L279.036,517.139L279.254,517.097L279.471,517.051L279.688,517.001L279.904,516.947L280.118,516.889L280.332,516.827L280.545,516.761L280.756,516.691L280.966,516.617L281.174,516.539L281.381,516.458L281.586,516.373L281.79,516.284L281.992,516.192L282.192,516.096L282.39,515.996L282.586,515.893L282.78,515.786L282.972,515.676L283.161,515.563L283.348,515.446L283.533,515.326L283.715,515.203L283.894,515.076L284.07,514.947L284.244,514.814L284.415,514.678L284.583,514.539L284.748,514.398L284.909,514.253L285.067,514.105L285.222,513.955L285.374,513.801L285.522,513.645L285.666,513.486L285.807,513.325L285.944,513.161L286.077,512.994L286.206,512.825L286.331,512.653L286.451,512.479L286.568,512.302L286.68,512.123L286.788,511.942L286.892,511.758L286.99,511.572L287.084,511.384L287.174,511.194L287.258,511.001L287.338,510.807L287.412,510.61L287.482,510.412L287.546,510.212L287.605,510.009L287.659,509.805L287.659,476.181L287.718,474.845L287.732,474.532L287.744,474.38L287.761,474.231L287.781,474.084L287.804,473.941L287.832,473.8L287.863,473.662L287.897,473.527L287.935,473.395L287.977,473.265L288.021,473.138L288.07,473.014L288.121,472.893L288.176,472.774L288.234,472.659L288.295,472.545L288.359,472.435L288.426,472.327L288.497,472.222L288.646,472.02L288.807,471.828L288.98,471.647L289.163,471.475L289.357,471.314L289.561,471.164L289.775,471.023L289.998,470.891L290.231,470.77L290.472,470.658L290.721,470.556L290.979,470.463L291.244,470.38L291.516,470.305L291.796,470.24L292.082,470.184L292.374,470.136L292.672,470.098L292.976,470.068L293.284,470.047L293.598,470.034L293.916,470.029L294.076,470.031L294.236,470.037L294.394,470.048L294.552,470.062L294.863,470.101L295.17,470.156L295.471,470.225L295.766,470.309L296.056,470.406L296.339,470.517L296.332,470.505L296.54,470.596L296.744,470.694L296.944,470.799L297.139,470.91L297.33,471.029L297.517,471.154L297.698,471.286L297.875,471.423L298.046,471.567L298.213,471.717L298.373,471.872L298.528,472.034L298.678,472.2L298.821,472.372L298.959,472.549L299.09,472.731L299.215,472.917L299.333,473.109L299.444,473.304L299.549,473.504L299.646,473.708L299.736,473.917L299.819,474.129L299.894,474.344L299.962,474.563L300.022,474.786L300.073,475.011L300.117,475.24L300.152,475.471L300.179,475.705L300.197,475.942L300.206,476.181L300.207,479.459L300.195,480.201L300.196,480.87L300.208,481.488L300.226,482.074L300.266,483.232L300.28,483.847L300.286,484.511L300.292,484.95L300.311,485.384L300.343,485.813L300.388,486.236L300.445,486.654L300.514,487.065L300.596,487.47L300.69,487.868L300.797,488.259L300.916,488.642L301.047,489.016L301.191,489.382L301.346,489.739L301.513,490.087L301.693,490.425L301.884,490.752L301.859,490.74L301.994,490.954L302.134,491.164L302.28,491.369L302.431,491.568L302.587,491.762L302.748,491.951L302.915,492.135L303.087,492.312L303.264,492.485L303.446,492.651L303.634,492.811L303.826,492.965L304.024,493.114L304.227,493.255L304.435,493.391L304.648,493.52L304.866,493.642L305.089,493.757L305.318,493.866L305.551,493.967L305.789,494.061L306.032,494.148L306.28,494.228L306.534,494.3L306.792,494.365L307.054,494.421L307.322,494.47L307.595,494.511L307.872,494.544L308.155,494.569L308.442,494.585L308.734,494.593L308.738,494.593L308.789,494.593L308.857,494.594L308.862,494.594L308.868,494.594L309.127,494.591L309.384,494.581L309.64,494.565L309.894,494.542L310.146,494.513L310.397,494.478L310.645,494.437L310.891,494.39L311.135,494.336L311.377,494.277L311.616,494.213L311.853,494.142L312.088,494.066L312.32,493.984L312.549,493.897L312.776,493.804L313,493.706L313.221,493.603L313.439,493.494L313.654,493.381L313.866,493.262L314.075,493.139L314.28,493.01L314.482,492.877L314.681,492.74L314.876,492.597L315.068,492.45L315.256,492.299L315.44,492.143L315.62,491.983L315.797,491.819L315.969,491.65L316.138,491.478L316.302,491.301L316.462,491.121L316.618,490.937L316.769,490.749L316.916,490.557L317.059,490.362L317.197,490.163L317.33,489.961L317.458,489.756L317.581,489.547L317.7,489.335L317.813,489.12L317.922,488.902L318.025,488.681L318.123,488.457L318.216,488.23L318.303,488.001L318.385,487.769L318.461,487.534L318.532,487.297L318.597,487.058L318.656,486.816L318.709,486.572L318.756,486.326L318.797,486.077L318.832,485.827L318.861,485.575L318.884,485.321L318.9,485.065L318.91,484.808L318.913,484.548L307.68,434.225L307.828,434.1L307.968,433.977L308.1,433.853L308.224,433.731L308.339,433.609L308.447,433.488L308.547,433.367L308.639,433.247L308.723,433.128L308.799,433.01L308.868,432.892L308.929,432.775L308.982,432.659L309.028,432.543L309.067,432.428L309.098,432.314L309.801,431.679L310.497,431.036L311.184,430.383L311.863,429.722L312.533,429.053L313.194,428.374L313.847,427.688L314.491,426.992L315.126,426.289L315.752,425.578L316.369,424.858L316.977,424.13L317.575,423.395L318.165,422.651L318.744,421.9L319.315,421.141L319.875,420.375L320.426,419.601L320.967,418.82L321.499,418.032L322.02,417.236L322.531,416.433L323.032,415.624L323.523,414.807L324.003,413.984L324.473,413.153L324.933,412.316L325.382,411.473L325.82,410.623L326.247,409.767L326.664,408.904L327.069,408.035L327.464,407.161L327.847,406.28L328.219,405.393L328.58,404.5L328.929,403.602L329.267,402.697L329.593,401.788L329.908,400.873L330.21,399.952L330.501,399.026L330.78,398.095L331.047,397.159L331.302,396.218L331.544,395.272L331.774,394.321L331.992,393.365L332.198,392.404L332.39,391.439L332.57,390.47L332.737,389.496L332.892,388.518L333.033,387.535L333.162,386.549L333.277,385.558L333.379,384.563L333.468,383.565L333.543,382.563L333.605,381.557L333.653,380.547L333.687,379.534L333.708,378.518L333.715,377.498L333.711,376.666L333.697,375.836L333.674,375.008L333.641,374.182L333.6,373.359L333.55,372.538L333.491,371.719L333.422,370.903L333.345,370.09L333.259,369.279L333.164,368.47L333.061,367.665L332.949,366.862L332.828,366.062L332.698,365.265L332.56,364.47L332.414,363.679L332.259,362.891L332.095,362.105L331.923,361.323L331.743,360.544L331.555,359.768L331.358,358.995L331.154,358.226L330.941,357.46L330.72,356.697L330.491,355.937L330.254,355.182L330.01,354.429L329.757,353.68L329.496,352.935L329.228,352.194L328.952,351.456L328.669,350.722L328.377,349.992L328.079,349.266L327.772,348.543L327.459,347.825L327.137,347.11L326.809,346.4L326.473,345.694L326.13,344.992L325.779,344.294L325.421,343.6L325.057,342.911L324.685,342.226L324.306,341.545L323.92,340.869L323.527,340.197L323.128,339.53L322.721,338.868L322.308,338.21L321.888,337.557L321.461,336.908L321.028,336.265L320.588,335.626L320.141,334.992L319.688,334.363L319.229,333.739L318.763,333.121L318.291,332.507L317.812,331.898L317.327,331.295L316.836,330.696L316.339,330.103L315.836,329.516L315.327,328.934L314.811,328.357L314.29,327.785L313.763,327.22L313.23,326.659L312.691,326.105L312.147,325.556L311.596,325.013L311.04,324.475L310.479,323.944L309.912,323.418L309.339,322.898L308.761,322.384L308.177,321.877L307.588,321.375L306.994,320.879L306.395,320.39L305.79,319.907L305.18,319.43L304.565,318.959L303.945,318.495L303.32,318.037L302.69,317.585L302.055,317.14L301.415,316.702L300.77,316.27L300.12,315.845L299.466,315.427L298.807,315.015L298.144,314.61L297.475,314.212L296.803,313.821L296.125,313.437L295.444,313.06L294.758,312.689L294.067,312.326L293.373,311.971L292.674,311.622L291.971,311.28L291.263,310.946L290.552,310.619L289.837,310.3L289.117,309.988L288.394,309.684L287.667,309.387L286.935,309.097L286.2,308.815L285.462,308.541L284.719,308.275L283.973,308.017L283.224,307.766L282.471,307.523L281.714,307.288L280.954,307.061L280.19,306.842L279.423,306.631L278.653,306.429L277.879,306.234L277.103,306.048L276.323,305.87L275.54,305.7L274.753,305.539L275.162,305.655L274.253,305.472L273.339,305.3L272.422,305.14L271.501,304.991L270.576,304.853L269.648,304.727L268.716,304.613L267.78,304.51L266.841,304.419L265.898,304.34L264.952,304.273L264.003,304.218L263.051,304.175L262.095,304.145L261.137,304.126L260.175,304.12L259.228,304.126ZM235.925,477.21L235.904,477.513L235.901,477.568L235.905,477.539L236.013,476.261L236.034,475.744L235.925,477.21Z"/>
            </g>
            <g transform="matrix(1,0,0,1,-204.799,-129.251)">
                <path d="M397.726,630.2C401.406,629.258 404.663,626.547 405.532,623.046L405.532,589.421L405.591,588.086C405.656,584.685 408.375,583.274 411.789,583.269C412.648,583.27 413.467,583.444 414.212,583.758L414.206,583.745C414.858,584.016 415.456,584.394 415.975,584.857C414.399,585.582 413.368,586.917 413.328,588.996L413.269,590.331L413.269,623.956C412.183,628.33 407.372,631.471 402.664,631.471L402.638,631.47L402.621,631.471C400.845,631.471 399.175,631.009 397.726,630.2ZM373.111,595.258C373.337,592.006 376.042,589.434 379.346,589.421C380.013,589.424 380.627,589.515 381.184,589.686L381.176,589.666C382.22,589.972 383.066,590.552 383.684,591.348C382.083,592.393 380.988,594.149 380.848,596.168L380.833,596.168L380.838,596.361C380.835,596.442 380.833,596.523 380.833,596.605C380.833,596.792 380.841,596.976 380.857,597.158L381.058,620.618C381.071,620.827 381.078,621.038 381.078,621.25C381.078,621.296 381.078,621.341 381.077,621.387L381.078,621.425L381.076,621.425C380.983,626.889 376.518,631.296 371.032,631.296L370.995,631.296L370.956,631.296C369.167,631.296 367.487,630.828 366.03,630.008C370.194,628.831 373.262,625.035 373.339,620.515L373.341,620.515L373.34,620.477C373.341,620.431 373.341,620.386 373.341,620.34C373.341,620.128 373.334,619.917 373.321,619.708L373.12,596.248C373.104,596.066 373.096,595.881 373.096,595.695C373.096,595.613 373.098,595.532 373.101,595.451L373.096,595.258L373.111,595.258ZM390.546,418.423C394.026,418.646 397.44,419.113 400.772,419.805C400.636,419.766 400.5,419.727 400.364,419.689C433.969,426.395 459.325,456.084 459.325,491.649C459.325,513.437 449.808,533.021 434.708,546.465C434.563,547.072 434.102,547.709 433.291,548.376L444.523,598.699C444.523,604.243 440.022,608.745 434.478,608.745L434.473,608.744L434.467,608.745L434.4,608.744L434.348,608.744L434.344,608.744C432.55,608.722 431.022,608.222 429.779,607.366C433.84,606.077 436.786,602.274 436.786,597.789L425.554,547.465C426.365,546.799 426.826,546.162 426.971,545.554C442.072,532.11 451.589,512.527 451.589,490.739C451.589,455.174 426.232,425.485 392.627,418.779C392.763,418.817 392.899,418.856 393.035,418.895C392.21,418.724 391.381,418.566 390.546,418.423ZM334.027,607.463C338.255,606.278 341.359,602.393 341.359,597.789L341.359,588.984C341.36,585.537 344.146,582.735 347.588,582.711C348.432,582.716 349.238,582.889 349.972,583.198L349.949,583.152C350.753,583.472 351.475,583.953 352.076,584.556C350.288,585.661 349.096,587.64 349.096,589.894L349.096,598.699C349.096,604.243 344.595,608.745 339.051,608.745L338.996,608.744L338.942,608.745C337.157,608.745 335.48,608.279 334.027,607.463Z" style="fill:rgb(116,90,161);"/>
            </g>
            <g transform="matrix(1,0,0,1,75.0387,156.819)">
                <g transform="matrix(1,0,0,1,-231.046,-94.7211)">
                    <path d="M288.765,355.514C273.403,342.06 263.696,322.305 263.696,300.3C263.696,259.801 296.576,226.922 337.075,226.922C377.573,226.922 410.453,259.801 410.453,300.3C410.453,323.145 399.991,343.565 383.601,357.027C383.601,357.027 352.675,362.39 337.075,362.142C321.269,361.89 288.765,355.514 288.765,355.514Z" style="fill:white;fill-opacity:0.54;"/>
                    <path d="M338.063,223.741L339.048,223.76L340.03,223.791L341.01,223.835L341.986,223.89L342.959,223.958L343.929,224.038L344.895,224.131L345.858,224.235L346.817,224.351L347.773,224.478L348.725,224.618L349.673,224.769L350.618,224.932L351.558,225.106L352.495,225.292L353.427,225.489L354.355,225.697L355.279,225.917L356.199,226.148L357.114,226.389L358.025,226.642L358.931,226.906L359.832,227.18L360.729,227.466L361.621,227.762L362.508,228.068L363.39,228.385L364.267,228.713L365.139,229.051L366.006,229.399L366.867,229.757L367.724,230.126L368.574,230.505L369.42,230.893L370.259,231.292L371.093,231.7L371.922,232.118L372.744,232.546L373.561,232.984L374.371,233.431L375.176,233.887L375.975,234.353L376.767,234.828L377.553,235.313L378.333,235.806L379.107,236.309L379.873,236.82L380.634,237.341L381.388,237.87L382.135,238.409L382.875,238.956L383.609,239.511L384.335,240.075L385.055,240.648L385.767,241.229L386.473,241.818L387.171,242.416L387.862,243.022L388.545,243.635L389.221,244.257L389.89,244.887L390.551,245.525L391.204,246.171L391.85,246.824L392.487,247.485L393.117,248.153L393.739,248.829L394.353,249.513L394.959,250.204L395.556,250.902L396.146,251.607L396.727,252.32L397.299,253.039L397.863,253.766L398.419,254.499L398.966,255.24L399.504,255.987L400.033,256.741L400.554,257.501L401.066,258.268L401.568,259.041L402.062,259.821L402.546,260.607L403.022,261.4L403.487,262.198L403.944,263.003L404.391,263.814L404.828,264.63L405.256,265.453L405.674,266.281L406.083,267.115L406.481,267.955L406.87,268.8L407.249,269.651L407.617,270.507L407.976,271.369L408.324,272.235L408.662,273.107L408.989,273.985L409.306,274.867L409.613,275.754L409.909,276.646L410.194,277.542L410.469,278.444L410.732,279.35L410.985,280.261L411.227,281.176L411.458,282.096L411.677,283.019L411.886,283.948L412.083,284.88L412.269,285.816L412.443,286.757L412.606,287.701L412.757,288.65L412.896,289.602L413.024,290.557L413.14,291.517L413.244,292.48L413.336,293.446L413.416,294.416L413.484,295.389L413.54,296.365L413.583,297.344L413.614,298.326L413.633,299.312L413.64,300.301L413.632,301.415L413.608,302.526L413.568,303.633L413.513,304.736L413.442,305.835L413.356,306.93L413.254,308.021L413.137,309.108L413.005,310.19L412.858,311.267L412.696,312.34L412.519,313.407L412.328,314.47L412.122,315.528L411.901,316.58L411.666,317.628L411.417,318.669L411.154,319.706L410.877,320.736L410.585,321.761L410.28,322.78L409.961,323.793L409.629,324.8L409.283,325.801L408.923,326.795L408.551,327.783L408.165,328.764L407.766,329.739L407.354,330.707L406.929,331.668L406.492,332.622L406.042,333.569L405.579,334.509L405.104,335.442L404.617,336.367L404.117,337.285L403.606,338.195L403.082,339.097L402.547,339.991L402,340.878L401.441,341.756L400.871,342.626L400.289,343.488L399.696,344.342L399.092,345.187L398.476,346.024L397.85,346.851L397.213,347.67L396.565,348.48L395.906,349.282L395.237,350.073L394.557,350.856L393.867,351.629L393.166,352.393L392.456,353.148L391.736,353.892L391.005,354.627L390.265,355.352L389.515,356.067L388.755,356.772L387.986,357.467L387.208,358.152L386.42,358.826L385.64,359.476L385.301,359.722L384.932,359.922L384.54,360.072L384.132,360.169L382.766,360.4L381.156,360.665L379.024,361.008L376.438,361.412L374.993,361.633L373.461,361.863L371.849,362.1L370.165,362.342L368.417,362.588L366.615,362.835L364.766,363.082L362.878,363.326L360.961,363.565L359.023,363.797L357.07,364.021L355.113,364.234L353.159,364.435L351.217,364.621L349.297,364.789L348.342,364.867L347.398,364.94L346.463,365.007L345.537,365.069L344.623,365.125L343.72,365.175L342.829,365.219L341.952,365.257L341.09,365.287L340.243,365.311L339.412,365.327L338.598,365.335L337.801,365.336L337.024,365.328L336.236,365.311L335.428,365.285L334.6,365.25L333.753,365.208L332.889,365.157L332.008,365.098L331.111,365.033L330.198,364.96L329.272,364.881L328.333,364.795L327.381,364.704L326.418,364.606L325.446,364.503L324.461,364.394L322.478,364.164L320.469,363.915L318.445,363.652L316.416,363.375L314.389,363.088L312.374,362.793L310.379,362.491L308.414,362.186L306.487,361.88L304.607,361.574L302.783,361.271L301.024,360.974L299.339,360.685L297.737,360.405L296.226,360.138L293.519,359.649L291.285,359.237L289.597,358.919L288.164,358.644L287.751,358.535L287.357,358.373L286.988,358.159L286.65,357.898L285.919,357.249L285.181,356.577L284.452,355.895L283.731,355.204L283.02,354.504L282.318,353.795L281.625,353.076L280.941,352.349L280.267,351.613L279.602,350.868L278.947,350.114L278.302,349.352L277.666,348.581L277.041,347.802L276.425,347.015L275.819,346.219L275.224,345.416L274.639,344.604L274.064,343.785L273.499,342.957L272.946,342.122L272.403,341.279L271.87,340.429L271.349,339.572L270.838,338.707L270.339,337.834L269.85,336.955L269.373,336.069L268.907,335.175L268.453,334.275L268.01,333.368L267.579,332.455L267.16,331.534L266.752,330.608L266.356,329.675L265.973,328.736L265.601,327.79L265.242,326.839L264.895,325.881L264.56,324.918L264.238,323.949L263.929,322.974L263.632,321.994L263.348,321.008L263.077,320.017L262.819,319.02L262.574,318.019L262.343,317.012L262.124,316.001L261.919,314.984L261.728,313.963L261.55,312.937L261.386,311.906L261.235,310.871L261.099,309.832L260.976,308.789L260.867,307.741L260.773,306.689L260.693,305.634L260.627,304.574L260.576,303.511L260.539,302.444L260.517,301.374L260.51,300.301L260.516,299.312L260.535,298.326L260.566,297.344L260.609,296.365L260.665,295.389L260.733,294.416L260.813,293.446L260.905,292.48L261.009,291.517L261.125,290.557L261.253,289.602L261.392,288.65L261.544,287.701L261.706,286.757L261.881,285.816L262.066,284.88L262.263,283.948L262.472,283.019L262.691,282.096L262.922,281.176L263.164,280.261L263.417,279.35L263.68,278.444L263.955,277.542L264.24,276.646L264.536,275.754L264.843,274.867L265.16,273.985L265.487,273.107L265.825,272.235L266.173,271.369L266.532,270.507L266.9,269.651L267.279,268.8L267.668,267.955L268.066,267.115L268.475,266.281L268.893,265.453L269.321,264.63L269.758,263.814L270.205,263.003L270.662,262.198L271.128,261.4L271.603,260.607L272.087,259.821L272.581,259.041L273.083,258.268L273.595,257.501L274.116,256.741L274.645,255.987L275.183,255.24L275.73,254.499L276.286,253.766L276.85,253.039L277.422,252.32L278.003,251.607L278.593,250.902L279.19,250.204L279.796,249.513L280.41,248.829L281.032,248.153L281.662,247.485L282.3,246.824L282.945,246.171L283.598,245.525L284.259,244.887L284.928,244.257L285.604,243.635L286.287,243.022L286.978,242.416L287.676,241.818L288.382,241.229L289.094,240.648L289.814,240.075L290.541,239.511L291.274,238.956L292.014,238.409L292.761,237.87L293.515,237.341L294.276,236.82L295.043,236.309L295.816,235.806L296.596,235.313L297.382,234.828L298.174,234.353L298.973,233.887L299.778,233.431L300.588,232.984L301.405,232.546L302.228,232.118L303.056,231.7L303.89,231.292L304.73,230.893L305.575,230.505L306.426,230.126L307.282,229.757L308.143,229.399L309.01,229.051L309.882,228.713L310.759,228.385L311.641,228.068L312.528,227.762L313.42,227.466L314.317,227.18L315.218,226.906L316.125,226.642L317.035,226.389L317.95,226.148L318.87,225.917L319.794,225.697L320.722,225.489L321.655,225.292L322.591,225.106L323.531,224.932L324.476,224.769L325.424,224.618L326.376,224.478L327.332,224.351L328.291,224.235L329.254,224.131L330.22,224.038L331.19,223.958L332.163,223.89L333.139,223.835L334.119,223.791L335.101,223.76L336.086,223.741L337.075,223.735L338.063,223.741ZM336.127,226.928L335.182,226.946L334.24,226.976L333.301,227.017L332.365,227.071L331.432,227.136L330.503,227.213L329.577,227.301L328.654,227.401L327.734,227.512L326.818,227.634L325.906,227.768L324.997,227.913L324.092,228.069L323.191,228.236L322.294,228.414L321.401,228.602L320.511,228.802L319.626,229.012L318.745,229.233L317.868,229.465L316.996,229.707L316.128,229.96L315.264,230.223L314.405,230.496L313.55,230.78L312.701,231.073L311.855,231.377L311.015,231.691L310.18,232.015L309.349,232.348L308.524,232.692L307.703,233.045L306.888,233.408L306.078,233.78L305.274,234.162L304.475,234.554L303.681,234.954L302.893,235.364L302.11,235.783L301.333,236.212L300.562,236.649L299.797,237.096L299.037,237.551L298.284,238.015L297.536,238.488L296.795,238.97L296.06,239.461L295.331,239.96L294.609,240.467L293.892,240.983L293.183,241.507L292.48,242.04L291.783,242.581L291.093,243.13L290.41,243.686L289.734,244.251L289.065,244.824L288.403,245.405L287.747,245.994L287.099,246.59L286.458,247.194L285.825,247.805L285.198,248.424L284.58,249.05L283.968,249.684L283.364,250.325L282.768,250.973L282.18,251.628L281.599,252.29L281.026,252.96L280.461,253.636L279.904,254.319L279.355,255.009L278.814,255.705L278.282,256.408L277.758,257.118L277.242,257.834L276.734,258.557L276.235,259.285L275.745,260.021L275.263,260.762L274.79,261.509L274.326,262.263L273.87,263.022L273.424,263.787L272.986,264.559L272.558,265.336L272.139,266.118L271.729,266.906L271.328,267.7L270.937,268.499L270.555,269.304L270.182,270.114L269.82,270.929L269.466,271.749L269.123,272.575L268.789,273.405L268.466,274.241L268.152,275.081L267.848,275.926L267.554,276.776L267.271,277.63L266.997,278.49L266.734,279.353L266.482,280.221L266.24,281.094L266.008,281.971L265.787,282.852L265.577,283.737L265.377,284.626L265.188,285.519L265.01,286.417L264.843,287.318L264.687,288.223L264.542,289.131L264.409,290.044L264.286,290.96L264.175,291.879L264.075,292.802L263.987,293.728L263.91,294.658L263.845,295.59L263.792,296.526L263.75,297.465L263.72,298.407L263.702,299.352L263.696,300.3L263.703,301.33L263.725,302.356L263.76,303.379L263.809,304.399L263.872,305.414L263.949,306.426L264.039,307.434L264.143,308.438L264.261,309.439L264.392,310.435L264.536,311.426L264.693,312.414L264.864,313.397L265.047,314.375L265.244,315.349L265.453,316.319L265.675,317.283L265.91,318.243L266.157,319.197L266.416,320.147L266.688,321.091L266.973,322.03L267.269,322.964L267.578,323.893L267.898,324.816L268.231,325.733L268.575,326.645L268.931,327.55L269.298,328.45L269.677,329.344L270.068,330.232L270.47,331.114L270.883,331.989L271.307,332.858L271.743,333.721L272.189,334.577L272.646,335.426L273.114,336.269L273.593,337.105L274.082,337.934L274.582,338.756L275.092,339.571L275.613,340.378L276.144,341.179L276.685,341.972L277.236,342.757L277.796,343.535L278.367,344.306L278.948,345.068L279.538,345.823L280.138,346.57L280.747,347.309L281.366,348.039L281.994,348.762L282.631,349.476L283.277,350.182L283.933,350.879L284.597,351.568L285.27,352.248L285.952,352.919L286.643,353.581L287.342,354.235L288.049,354.879L288.765,355.514L290.193,355.789L291.869,356.104L294.091,356.515L296.786,357.001L298.289,357.267L299.883,357.545L301.559,357.833L303.309,358.129L305.123,358.43L306.993,358.734L308.908,359.038L310.861,359.341L312.843,359.641L314.843,359.934L316.854,360.219L318.866,360.493L320.87,360.754L322.858,361L324.82,361.228L325.788,361.335L326.747,361.436L327.695,361.533L328.63,361.623L329.553,361.707L330.461,361.785L331.353,361.856L332.229,361.92L333.088,361.976L333.927,362.026L334.747,362.067L335.545,362.1L336.322,362.125L337.075,362.142L337.817,362.149L338.581,362.149L339.365,362.141L340.168,362.125L340.989,362.102L341.828,362.073L342.683,362.036L343.553,361.993L344.436,361.944L345.333,361.889L346.242,361.828L347.161,361.762L348.09,361.691L349.028,361.614L350.926,361.447L352.845,361.264L354.778,361.066L356.716,360.854L358.651,360.633L360.574,360.402L362.477,360.165L364.351,359.922L366.188,359.677L367.979,359.432L369.716,359.188L371.39,358.946L372.993,358.711L374.516,358.482L375.952,358.263L378.525,357.861L380.644,357.52L382.241,357.257L383.601,357.027L384.365,356.391L385.12,355.744L385.866,355.088L386.603,354.422L387.331,353.746L388.05,353.061L388.76,352.366L389.46,351.661L390.151,350.947L390.832,350.224L391.504,349.492L392.165,348.75L392.817,348L393.458,347.241L394.09,346.473L394.711,345.697L395.322,344.911L395.922,344.118L396.512,343.316L397.091,342.506L397.66,341.688L398.217,340.862L398.764,340.028L399.3,339.186L399.824,338.336L400.337,337.479L400.839,336.614L401.329,335.742L401.808,334.863L402.275,333.976L402.73,333.083L403.173,332.182L403.604,331.274L404.024,330.36L404.43,329.439L404.825,328.512L405.207,327.578L405.577,326.638L405.934,325.691L406.278,324.738L406.61,323.78L406.928,322.815L407.234,321.844L407.526,320.868L407.805,319.886L408.071,318.899L408.323,317.906L408.562,316.908L408.787,315.905L408.998,314.896L409.196,313.883L409.379,312.865L409.549,311.841L409.704,310.814L409.845,309.781L409.971,308.744L410.083,307.703L410.181,306.657L410.263,305.608L410.331,304.554L410.384,303.496L410.422,302.434L410.445,301.369L410.453,300.3L410.447,299.352L410.429,298.407L410.399,297.465L410.357,296.526L410.304,295.59L410.239,294.658L410.162,293.728L410.074,292.802L409.974,291.879L409.863,290.96L409.74,290.044L409.607,289.131L409.462,288.223L409.306,287.318L409.139,286.417L408.961,285.519L408.772,284.626L408.573,283.737L408.362,282.852L408.141,281.971L407.909,281.094L407.667,280.221L407.415,279.353L407.152,278.49L406.878,277.63L406.595,276.776L406.301,275.926L405.997,275.081L405.683,274.241L405.36,273.405L405.026,272.575L404.683,271.749L404.329,270.929L403.967,270.114L403.594,269.304L403.212,268.499L402.821,267.7L402.42,266.906L402.01,266.118L401.591,265.336L401.163,264.559L400.725,263.787L400.279,263.022L399.823,262.263L399.359,261.509L398.886,260.762L398.404,260.021L397.914,259.285L397.415,258.557L396.907,257.834L396.392,257.118L395.867,256.408L395.335,255.705L394.794,255.009L394.245,254.319L393.688,253.636L393.123,252.96L392.55,252.29L391.97,251.628L391.381,250.973L390.785,250.325L390.181,249.684L389.57,249.05L388.951,248.424L388.324,247.805L387.691,247.194L387.05,246.59L386.402,245.994L385.746,245.405L385.084,244.824L384.415,244.251L383.739,243.686L383.056,243.13L382.366,242.581L381.669,242.04L380.966,241.507L380.257,240.983L379.541,240.467L378.818,239.96L378.089,239.461L377.354,238.97L376.613,238.488L375.865,238.015L375.112,237.551L374.352,237.096L373.587,236.649L372.816,236.212L372.039,235.783L371.256,235.364L370.468,234.954L369.674,234.554L368.875,234.162L368.071,233.78L367.261,233.408L366.446,233.045L365.625,232.692L364.8,232.348L363.969,232.015L363.134,231.691L362.294,231.377L361.448,231.073L360.599,230.78L359.744,230.496L358.885,230.223L358.021,229.96L357.153,229.707L356.281,229.465L355.404,229.233L354.523,229.012L353.638,228.802L352.748,228.602L351.855,228.414L350.958,228.236L350.057,228.069L349.152,227.913L348.243,227.768L347.331,227.634L346.415,227.512L345.495,227.401L344.573,227.301L343.646,227.213L342.717,227.136L341.784,227.071L340.848,227.017L339.909,226.976L338.967,226.946L338.022,226.928L337.075,226.922L336.127,226.928Z"/>
                </g>
                <g transform="matrix(0.920116,0,0,0.908726,-459.195,-36.0878)">
                    <path d="M669.875,328.878C669.875,328.878 647.26,331.333 613.905,331.333C578.761,331.333 558.159,328.878 558.159,328.878L558.383,332.55C558.383,332.55 579.262,339.108 613.905,339.108C647.26,339.108 669.763,331.878 669.763,331.878L669.875,328.878Z" style="fill:white;"/>
                    <path d="M558.535,325.393L559.476,325.497L560.631,325.615L562.243,325.77L564.305,325.954L565.497,326.054L566.8,326.159L568.21,326.268L569.726,326.379L571.347,326.492L573.073,326.606L574.901,326.721L576.83,326.834L578.861,326.945L580.991,327.054L583.219,327.16L585.544,327.26L587.966,327.356L590.483,327.445L593.093,327.527L595.797,327.601L598.592,327.667L601.478,327.722L604.453,327.766L607.517,327.799L610.668,327.82L613.905,327.827L616.985,327.82L620,327.799L622.948,327.766L625.826,327.722L628.634,327.667L631.368,327.601L634.026,327.527L636.607,327.445L639.107,327.356L641.525,327.26L643.859,327.159L646.106,327.054L648.264,326.945L650.332,326.834L652.306,326.72L654.185,326.606L655.966,326.492L657.648,326.378L659.228,326.267L660.701,326.158L663.335,325.952L665.524,325.768L667.252,325.613L668.502,325.494L669.528,325.389L669.898,325.372L670.267,325.394L670.631,325.457L670.987,325.558L671.33,325.697L671.657,325.872L671.963,326.081L672.246,326.323L672.501,326.593L672.727,326.89L672.92,327.209L673.079,327.547L673.2,327.9L673.284,328.265L673.33,328.636L673.335,329.011L673.224,332.011L673.187,332.402L673.108,332.788L672.986,333.161L672.824,333.519L672.623,333.856L672.386,334.168L672.117,334.451L671.817,334.702L671.492,334.917L671.145,335.094L670.78,335.23L670.499,335.318L669.69,335.559L669.089,335.731L668.372,335.93L667.534,336.157L666.579,336.407L665.509,336.678L664.325,336.967L663.03,337.273L661.627,337.591L660.116,337.92L658.5,338.257L656.782,338.599L654.967,338.942L654.016,339.116L653.045,339.287L652.05,339.459L651.032,339.629L649.989,339.798L648.924,339.965L647.835,340.13L646.723,340.293L645.589,340.453L644.433,340.609L643.255,340.763L642.055,340.913L640.834,341.059L639.591,341.2L638.328,341.337L637.044,341.468L635.739,341.595L634.415,341.715L633.07,341.83L631.706,341.938L630.323,342.039L628.92,342.134L627.499,342.22L626.059,342.3L624.601,342.371L623.125,342.434L621.631,342.488L620.12,342.533L618.591,342.568L617.046,342.594L615.484,342.61L613.906,342.615L612.271,342.61L610.658,342.596L609.065,342.573L607.493,342.54L605.942,342.5L604.412,342.451L602.903,342.394L601.415,342.329L599.95,342.258L598.506,342.179L597.084,342.094L595.684,342.002L594.306,341.904L592.951,341.8L591.618,341.691L590.308,341.576L589.021,341.457L587.757,341.333L586.516,341.205L585.299,341.073L584.105,340.937L582.935,340.798L581.789,340.655L580.666,340.51L579.568,340.363L578.495,340.213L577.446,340.062L576.421,339.908L575.422,339.754L574.447,339.599L573.498,339.443L572.57,339.286L570.803,338.974L569.135,338.663L567.571,338.357L566.114,338.059L564.764,337.769L563.522,337.492L562.39,337.228L561.369,336.982L560.461,336.754L559.666,336.548L558.986,336.366L558.418,336.209L557.655,335.989L557.39,335.909L557.029,335.777L556.685,335.606L556.362,335.397L556.063,335.153L555.793,334.878L555.555,334.574L555.352,334.245L555.185,333.895L555.058,333.529L554.971,333.151L554.927,332.765L554.703,329.094L554.7,328.713L554.738,328.334L554.817,327.961L554.935,327.598L555.092,327.251L555.284,326.924L555.511,326.619L555.769,326.341L556.055,326.093L556.367,325.878L556.699,325.699L557.049,325.557L557.411,325.455L557.783,325.393L558.159,325.372L558.535,325.393ZM668.838,328.984L667.568,329.105L665.82,329.262L663.612,329.448L660.96,329.655L659.474,329.765L657.883,329.877L656.191,329.991L654.398,330.106L652.508,330.221L650.522,330.335L648.443,330.447L646.272,330.557L644.013,330.663L641.666,330.764L639.235,330.86L636.722,330.95L634.128,331.032L631.456,331.107L628.708,331.172L625.887,331.228L622.993,331.273L620.03,331.306L617,331.326L613.905,331.333L610.653,331.326L607.488,331.306L604.409,331.273L601.42,331.228L598.52,331.172L595.71,331.107L592.993,331.032L590.368,330.95L587.838,330.86L585.403,330.764L583.064,330.663L580.823,330.557L578.68,330.447L576.636,330.335L574.694,330.221L572.853,330.106L571.115,329.991L569.482,329.877L567.953,329.765L566.531,329.655L565.216,329.549L564.01,329.448L561.928,329.262L560.292,329.105L559.113,328.984L558.159,328.878L558.383,332.55L558.626,332.623L559.348,332.831L559.885,332.98L560.538,333.155L561.306,333.354L562.187,333.574L563.18,333.814L564.283,334.071L565.496,334.342L566.816,334.625L568.244,334.917L569.776,335.217L571.413,335.522L573.153,335.829L574.061,335.983L574.994,336.136L575.952,336.289L576.935,336.441L577.943,336.591L578.976,336.74L580.033,336.888L581.114,337.033L582.219,337.176L583.348,337.316L584.5,337.453L585.677,337.587L586.877,337.717L588.1,337.844L589.346,337.966L590.615,338.084L591.907,338.196L593.221,338.304L594.558,338.406L595.917,338.503L597.298,338.594L598.701,338.678L600.126,338.756L601.573,338.826L603.041,338.89L604.531,338.946L606.041,338.994L607.573,339.035L609.125,339.066L610.698,339.09L612.291,339.104L613.905,339.108L615.461,339.103L617,339.088L618.523,339.062L620.029,339.027L621.518,338.983L622.991,338.93L624.445,338.868L625.882,338.798L627.301,338.72L628.701,338.634L630.083,338.541L631.446,338.441L632.79,338.335L634.114,338.222L635.419,338.103L636.705,337.979L637.969,337.849L639.214,337.714L640.438,337.575L641.64,337.431L642.822,337.284L643.982,337.133L645.12,336.978L646.237,336.821L647.331,336.661L648.402,336.498L649.451,336.334L650.476,336.168L651.478,336L652.457,335.832L653.412,335.663L654.342,335.493L656.129,335.155L657.817,334.819L659.402,334.489L660.884,334.166L662.259,333.854L663.526,333.555L664.682,333.272L665.726,333.008L666.654,332.765L667.466,332.546L668.159,332.353L668.731,332.189L669.502,331.96L669.763,331.878L669.875,328.878L668.838,328.984Z"/>
                </g>
            </g>
            <g transform="matrix(1,0,0,1,267.308,-791.217)">
                <circle cx="-86.24" cy="1153" r="38.215" style="fill:white;fill-opacity:0.65;"/>
            </g>
            <g transform="matrix(1,0,0,1,300.665,-789.217)">
                <path d="M-105.793,1135.65C-104.241,1137.49 -103.306,1139.86 -103.306,1142.45C-103.306,1148.27 -108.033,1153 -113.857,1153C-119.68,1153 -124.408,1148.27 -124.408,1142.45C-124.408,1136.63 -119.68,1131.9 -113.857,1131.9C-112.224,1131.9 -110.678,1132.27 -109.298,1132.93C-109.43,1132.92 -109.564,1132.91 -109.7,1132.91C-111.994,1132.91 -113.857,1134.78 -113.857,1137.07C-113.857,1139.37 -111.994,1141.23 -109.7,1141.23C-107.405,1141.23 -105.543,1139.37 -105.543,1137.07C-105.543,1136.57 -105.631,1136.09 -105.793,1135.65Z" style="fill:rgb(93,31,232);fill-opacity:0.65;"/>
            </g>
            <g transform="matrix(1,0,0,1,158.671,-717.307)">
                <path d="M50.28,1052.97C56.686,1059.81 60.611,1068.99 60.611,1079.09C60.611,1100.18 43.487,1117.31 22.396,1117.31C9.543,1117.31 -1.836,1110.95 -8.764,1101.21C-1.79,1108.65 8.126,1113.3 19.119,1113.3C40.21,1113.3 57.334,1096.18 57.334,1075.09C57.334,1066.85 54.721,1059.21 50.28,1052.97Z" style="fill:rgb(216,216,218);"/>
            </g>
        </g>
    </g>
</svg>
